<svg width="500" height="500" viewBox="0 0 500 500" fill="none" xmlns="http://www.w3.org/2000/svg">
<path fill-rule="evenodd" clip-rule="evenodd" d="M200.023 295.002C200.014 286.982 200.006 278.963 200.006 270.944L200.026 270.954C200.028 265.609 200.031 260.265 200.034 254.92C200.048 231.768 200.061 208.619 199.985 185.464C199.977 182.158 199.625 178.852 199.274 175.546C199.168 174.542 199.061 173.538 198.964 172.534C198.631 169.074 196.714 167.274 192.944 166.884C186.705 166.244 180.55 166.034 174.269 166.724C169.281 167.264 167.218 169.844 166.875 174.164C166.783 175.291 166.686 176.419 166.59 177.546C166.159 182.562 165.729 187.581 165.729 192.594C165.666 228.148 165.669 263.698 165.671 299.249C165.672 317.023 165.673 334.798 165.666 352.574C165.656 361.224 161.469 367.214 153.012 369.334C146.763 370.904 140.212 370.954 134.171 368.094C124.334 363.446 114.881 358.147 105.429 352.848C100.2 349.917 94.9707 346.985 89.6769 344.164C84.8234 341.574 83.2194 338.115 83.2402 332.824C83.3712 290.529 83.3607 248.24 83.3501 205.948C83.3473 194.414 83.3444 182.879 83.3444 171.344C83.3444 170.014 83.3548 168.674 83.3965 167.344C83.5527 161.484 86.3857 157.274 91.7703 154.494C95.9398 152.331 100.039 150.025 104.128 147.724L104.394 147.574C109.347 144.784 114.291 141.979 119.235 139.174C128.148 134.117 137.06 129.06 146.023 124.094C155.908 118.616 165.831 113.204 175.753 107.793C183.907 103.345 192.061 98.8982 200.193 94.4145C213.577 87.0345 226.929 79.6145 240.167 72.0045C247.03 68.0545 253.571 68.0345 260.154 72.2845C262.004 73.4802 263.949 74.4933 265.894 75.5058C266.827 75.9921 267.761 76.4783 268.684 76.9845C285.41 86.1831 302.083 95.4858 318.755 104.788C326.334 109.017 333.913 113.246 341.497 117.464C346.56 120.283 351.62 123.108 356.68 125.933C373.486 135.316 390.291 144.698 407.238 153.844C414.039 157.524 416.632 162.734 416.632 169.744C416.632 180.77 416.631 191.796 416.63 202.821C416.627 246.956 416.624 291.09 416.674 335.224C416.684 338.994 415.164 341.514 411.831 343.364C404.361 347.518 396.905 351.695 389.45 355.872C380.429 360.925 371.408 365.979 362.358 370.994C350.487 377.569 338.608 384.129 326.729 390.688C303.267 403.644 279.806 416.599 256.414 429.664C251.738 432.274 248.051 432.334 243.468 429.594C235.107 424.596 226.609 419.815 218.114 415.036C215.085 413.332 212.057 411.628 209.036 409.914C206.453 408.454 203.651 406.964 200.693 408.364C192.59 412.194 184.279 415.534 175.894 418.724C173.686 419.564 173.207 420.995 173.738 423.514C175.04 429.655 178.967 433.234 184.372 436.184C199.599 444.484 214.764 452.904 229.783 461.544C243.531 469.454 257.102 468.884 270.663 461.454C281.227 455.672 291.756 449.826 302.284 443.98C308.871 440.323 315.457 436.665 322.051 433.024L331.139 428.006C362.356 410.768 393.575 393.528 424.829 376.354C439.41 368.344 449.836 357.544 449.878 340.484C450.034 281.494 450.055 222.494 449.857 163.504C449.805 148.044 444.67 134.704 429.714 126.434C419.998 121.062 410.306 115.645 400.613 110.228C390.676 104.675 380.738 99.1219 370.774 93.6145C361.66 88.5754 352.525 83.5792 343.389 78.5831C332.782 72.7822 322.175 66.9815 311.605 61.1145C307.54 58.8568 303.491 56.5729 299.442 54.2891C288.085 47.8833 276.729 41.4782 265.028 35.6545C255.415 30.8645 245.697 30.8445 235.98 35.2345C232.053 37.0045 228.21 38.9645 224.46 41.0445C212.582 47.6452 200.718 54.2678 188.855 60.8901C174.173 69.0862 159.491 77.2817 144.784 85.4345C132.056 92.4929 119.298 99.5032 106.539 106.514C94.6055 113.071 82.672 119.628 70.7628 126.224C66.7217 128.464 63.0243 131.144 59.8893 134.634C51.5467 143.904 50.2343 155.244 50.1823 166.554C49.9219 223.884 49.974 281.204 50.1302 338.534C50.1719 353.164 56.2335 365.174 69.69 372.814C83.5527 380.694 97.582 388.294 111.684 395.774C124.932 402.804 138.91 407.364 154.408 406.054C169.885 404.754 182.466 398.974 191.548 386.244C197.652 377.674 199.87 368.354 199.933 358.434C200.069 337.293 200.046 316.146 200.023 295.002ZM368.769 279.116C368.767 270.898 368.764 262.681 368.764 254.464L368.796 254.474C368.796 250.391 368.796 246.307 368.796 242.222C368.798 221.824 368.799 201.419 368.764 181.014C368.764 178.354 368.587 175.674 368.15 173.064C367.473 169.044 364.953 166.994 360.568 167.074C355.371 167.164 350.163 167.134 344.955 167.074C339.831 167.004 337.206 169.704 336.665 174.254C336.05 179.374 335.571 184.534 335.509 189.674C335.342 202.834 335.321 215.994 335.519 229.154C335.582 233.504 333.926 234.984 329.437 234.944C310.877 234.784 292.306 234.784 273.746 234.944C269.289 234.974 267.258 233.554 267.685 229.174C267.826 227.725 267.781 226.25 267.736 224.781C267.725 224.415 267.714 224.049 267.705 223.684C267.568 218.078 267.638 212.469 267.708 206.86C267.839 196.322 267.97 185.785 266.726 175.264C266.018 169.274 264.081 167.234 257.936 167.094C254.334 167.016 250.725 167.036 247.114 167.056C246.559 167.059 246.004 167.062 245.448 167.064C237.439 167.094 235.22 168.874 234.564 176.514C234.52 177.022 234.476 177.53 234.431 178.037C233.868 184.487 233.305 190.926 233.325 197.434C233.45 237.084 233.418 276.724 233.346 316.374C233.335 321.884 233.72 327.344 234.439 332.794C235.074 337.594 238.72 340.844 243.875 341.024C246.601 341.122 249.333 341.101 252.067 341.081C252.978 341.074 253.89 341.067 254.801 341.064C264.102 341.034 266.393 339.114 267.487 330.264C267.705 328.532 267.701 326.776 267.696 325.024C267.696 324.774 267.695 324.524 267.695 324.274C267.703 318.445 267.7 312.614 267.697 306.783C267.693 297.619 267.688 288.455 267.726 279.294C267.757 271.824 269.601 270.064 277.194 270.054C293.504 270.024 309.814 270.014 326.125 270.054C333.665 270.074 335.404 271.704 335.425 278.834C335.477 293.994 335.477 309.154 335.425 324.314C335.415 327.504 335.592 330.684 336.55 333.714C337.925 338.044 340.748 340.944 345.83 341.034C348.298 341.079 350.766 341.074 353.238 341.068C354.063 341.066 354.888 341.064 355.714 341.064C366.525 341.044 368.754 338.924 368.764 328.424C368.778 311.991 368.774 295.553 368.769 279.116Z" fill="#00BB80"/>
</svg>
